<svg xmlns="http://www.w3.org/2000/svg" viewBox="0 0 420 110" role="img" aria-labelledby="title"><title id="title">SportSpot</title><path fill="#16a6a1" d="M45 8c-22 0-40 18-40 40 0 29 40 55 40 55s40-26 40-55C85 26 67 8 45 8Z"/><circle cx="45" cy="47" r="25" fill="#c7e84b"/><path fill="#10283f" d="M57 32c-7-7-23-6-28 3-7 13 8 16 17 19 5 2 5 7 0 9-7 2-12-3-16-6l-6 9c7 7 22 10 31 4 11-8 7-21-4-25l-12-4c-3-1-3-5 1-6 5-2 10 1 13 4l4-7Z"/><text x="105" y="73" fill="#fff" font-family="sans-serif" font-size="48" font-weight="700">SportSpot</text></svg>